<svg xmlns="http://www.w3.org/2000/svg" viewBox="0 0 800 500" width="800" height="500">
  <rect width="800" height="500" fill="#0E1B2C"/>
  <rect width="800" height="500" fill="url(#g)"/>
  <defs>
    <radialGradient id="g" cx="75%" cy="25%" r="75%">
      <stop offset="0%" stop-color="#0E1B2C" stop-opacity="0.45"/>
      <stop offset="60%" stop-color="#0E1B2C" stop-opacity="0"/>
    </radialGradient>
  </defs>
  <!-- water motif -->
  <path d="M0 340.0 Q 200.0 300.0 400.0 340.0 T 800 340.0 V 500 H 0 Z" fill="#0E1B2C" fill-opacity="0.18"/>
  <path d="M0 390.0 Q 200.0 360.0 400.0 390.0 T 800 390.0 V 500 H 0 Z" fill="#0E1B2C" fill-opacity="0.28"/>
  <path d="M0 440.0 Q 200.0 420.0 400.0 440.0 T 800 440.0 V 500 H 0 Z" fill="#0E1B2C" fill-opacity="0.4"/>
  <!-- drop icon -->
  <g transform="translate(372, 160.0)">
    <path d="M28 6 C 16 20, 14 28, 28 32 C 42 28, 40 20, 28 6 Z" fill="none" stroke="#FFFFFF" stroke-width="2" stroke-linejoin="round" opacity="0.85"/>
    <circle cx="28" cy="36" r="14" fill="none" stroke="#FFFFFF" stroke-width="2" opacity="0.85"/>
  </g>
  <!-- label -->
  <text x="400" y="290.0" font-family="Georgia, serif" font-size="30" fill="#FFFFFF" text-anchor="middle" font-weight="500" opacity="0.92">Conference Venue</text>
</svg>